<svg id="Layer_1" data-name="Layer 1" xmlns="http://www.w3.org/2000/svg" viewBox="0 0 1395.04 507.23"><defs><style>.cls-1,.cls-3{fill:#efbb1a;}.cls-2{fill:#fff;}.cls-3{font-size:114.82px;font-family:Montserrat-ExtraBold, Montserrat;font-weight:700;letter-spacing:-0.08em;}.cls-4{letter-spacing:0em;}</style></defs><title>logo</title><path class="cls-1" d="M982,1132.6a81.46,81.46,0,1,0-143-53.33c0,24.77,12.8,46.95,30.24,61.89l54.14,112.15,53.64-115.41q2.63-2.54,5-5.3h0Z" transform="translate(-327.99 -978.32)"/><rect class="cls-2" x="580.63" y="47.66" width="22.5" height="7.5" rx="3.75" ry="3.75"/><path class="cls-2" d="M954.14,1072.48H886.36a6.07,6.07,0,0,1-5.9-7.51l3.44-14.11a12,12,0,0,1,11.63-9.13H945a12,12,0,0,1,11.63,9.13L960,1065A6.07,6.07,0,0,1,954.14,1072.48Z" transform="translate(-327.99 -978.32)"/><circle class="cls-2" cx="551.01" cy="110.28" r="10.87"/><circle class="cls-2" cx="632.01" cy="110.28" r="10.87"/><rect class="cls-2" x="546.13" y="128.66" width="91.5" height="14.25" rx="7.12" ry="7.12"/><path class="cls-1" d="M402.4,1315.56,328,1092.75h42.61L423,1249.67l48.36-156.93H514l52.42,156.93,48.36-156.93h42.27l-69,222.82H545.79l-52.42-156.93-48.7,156.93Z" transform="translate(-327.99 -978.32)"/><path class="cls-1" d="M815.33,1156.09v159.48H774.75V1236q0-19.1-14.2-32.47T726,1190.15a51.12,51.12,0,0,0-18.77,3.5,48.43,48.43,0,0,0-15.73,9.87q-14.2,13.37-14.2,32.47,0,18.79,14.2,32.15a43.94,43.94,0,0,0,15.73,10A53.24,53.24,0,0,0,726,1281.5a49.63,49.63,0,0,0,18.26-3.18l14.54,34.06q-15.56,7.32-36.19,7.32a88.73,88.73,0,0,1-34.33-6.53,83.27,83.27,0,0,1-27.22-18A83.15,83.15,0,0,1,636.76,1236a83.68,83.68,0,0,1,6.43-32.79,82.43,82.43,0,0,1,17.92-26.74,83.34,83.34,0,0,1,27.22-18,88.75,88.75,0,0,1,34.33-6.53q16.57,0,29.42,4.77a90.2,90.2,0,0,1,22.66,12.1v-12.73Z" transform="translate(-327.99 -978.32)"/><path class="cls-1" d="M1023.65,1156.41l-78.46,159.16H900.55l-78.46-159.16h44.64l56.14,114,56.14-114Z" transform="translate(-327.99 -978.32)"/><path class="cls-1" d="M1141,1255.08H1052.4a39.64,39.64,0,0,0,9.81,13.05,47.77,47.77,0,0,0,15.89,10,51.88,51.88,0,0,0,18.6,3.34,49.74,49.74,0,0,0,24.69-6l42.27,15.92a84.94,84.94,0,0,1-29.42,20.85,97.11,97.11,0,0,1-72.37,1,89.86,89.86,0,0,1-28.41-18,84,84,0,0,1-19.11-26.74,80.23,80.23,0,0,1,0-65.25,84,84,0,0,1,19.11-26.74,89.94,89.94,0,0,1,28.41-18,96.24,96.24,0,0,1,69.67,0,90,90,0,0,1,28.41,18,84.15,84.15,0,0,1,19.11,26.74A78.5,78.5,0,0,1,1186,1236a74.21,74.21,0,0,1-2.37,19.1Zm-44.3-64.94a50,50,0,0,0-34.5,13.37,43.22,43.22,0,0,0-9.81,13.37H1141a43.35,43.35,0,0,0-9.81-13.37Q1117,1190.15,1096.7,1190.15Z" transform="translate(-327.99 -978.32)"/><path class="cls-1" d="M1283,1152a74.68,74.68,0,0,1,30.1,5.89,68.87,68.87,0,0,1,23.17,16.23,73.46,73.46,0,0,1,14.88,24,81.23,81.23,0,0,1,5.24,29.29v88.17h-40.58v-88.17A33.83,33.83,0,0,0,1304,1201a39,39,0,0,0-27.73-10.82q-16.57,0-28.07,10.82a34.9,34.9,0,0,0-11.5,26.42v88.17h-40.58V1156.41h40.58v12.1a81,81,0,0,1,20.63-11.94A68.51,68.51,0,0,1,1283,1152Z" transform="translate(-327.99 -978.32)"/><path class="cls-1" d="M1498.47,1255.08h-88.61a39.62,39.62,0,0,0,9.81,13.05,47.79,47.79,0,0,0,15.9,10,51.88,51.88,0,0,0,18.6,3.34,49.74,49.74,0,0,0,24.69-6l42.27,15.92a84.94,84.94,0,0,1-29.42,20.85,97.11,97.11,0,0,1-72.37,1,89.87,89.87,0,0,1-28.41-18,84,84,0,0,1-19.11-26.74,80.23,80.23,0,0,1,0-65.25,84,84,0,0,1,19.11-26.74,90,90,0,0,1,28.41-18,96.24,96.24,0,0,1,69.67,0,90,90,0,0,1,28.41,18,84.12,84.12,0,0,1,19.11,26.74,78.48,78.48,0,0,1,6.93,32.79,74.26,74.26,0,0,1-2.37,19.1Zm-44.3-64.94a50,50,0,0,0-34.5,13.37,43.2,43.2,0,0,0-9.81,13.37h88.61a43.36,43.36,0,0,0-9.81-13.37Q1474.46,1190.15,1454.17,1190.15Z" transform="translate(-327.99 -978.32)"/><path class="cls-1" d="M1723,1156.41l-78.46,159.16-39.48,72.65a72.82,72.82,0,0,1-28.41,30.88,79.47,79.47,0,0,1-41.94,11.46h-17.92l10.15-38.2h9.81a34.81,34.81,0,0,0,18.26-5.09,31.4,31.4,0,0,0,12.51-13.69l32.38-58-78.46-159.16h44.64l56.14,114,56.14-114Z" transform="translate(-327.99 -978.32)"/><path class="cls-1" d="M847.08,1137.76a92.79,92.79,0,1,1,144.84,0h10.87a101.5,101.5,0,1,0-166.58,0Z" transform="translate(-327.99 -978.32)"/><text class="cls-3" transform="translate(834.01 453.49)">T<tspan class="cls-4" x="63.15" y="0">AXIS</tspan></text></svg>