<?xml version="1.0" encoding="utf-8"?>
<!-- Generator: Adobe Illustrator 22.0.1, SVG Export Plug-In . SVG Version: 6.00 Build 0)  -->
<svg version="1.1" id="Layer_1" xmlns="http://www.w3.org/2000/svg" xmlns:xlink="http://www.w3.org/1999/xlink" x="0px" y="0px"
	 viewBox="0 0 1395 507.2" style="enable-background:new 0 0 1395 507.2;" xml:space="preserve">
<style type="text/css">
	.st0{fill:#EFBB1A;}
	.st1{fill:#FFFFFF;}
</style>
<title>logo</title>
<path class="st0" d="M654.7,266.7c29.5-34,25.8-85.4-8.2-114.9c-34-29.5-85.4-25.8-114.9,8.2c-12.9,14.8-19.9,33.8-19.9,53.4
	c0,24.8,12.8,46.9,30.2,61.9l54.1,112.2L649.8,272C651.5,270.3,653.2,268.6,654.7,266.7L654.7,266.7L654.7,266.7z"/>
<path class="st1" d="M585.1,160.1h15c2.1,0,3.8,1.7,3.8,3.8l0,0c0,2.1-1.7,3.8-3.8,3.8h-15c-2.1,0-3.8-1.7-3.8-3.8l0,0
	C581.4,161.8,583,160.1,585.1,160.1z"/>
<path class="st1" d="M626.9,206.6h-67.8c-3.4,0-6.1-2.7-6.1-6.1c0-0.5,0.1-1,0.2-1.4l3.4-14.1c1.3-5.4,6.1-9.1,11.6-9.1h49.5
	c5.5,0,10.3,3.8,11.6,9.1l3.4,14.1c0.8,3.3-1.2,6.5-4.5,7.3C627.8,206.5,627.3,206.6,626.9,206.6z"/>
<circle class="st1" cx="551.7" cy="222.7" r="10.9"/>
<circle class="st1" cx="632.7" cy="222.7" r="10.9"/>
<path class="st1" d="M554,241.1h77.3c3.9,0,7.1,3.2,7.1,7.1v0c0,3.9-3.2,7.1-7.1,7.1H554c-3.9,0-7.1-3.2-7.1-7.1v0
	C546.9,244.3,550,241.1,554,241.1z"/>
<path class="st0" d="M519.8,271.9c-32-40-25.6-98.4,14.4-130.4c40-32,98.4-25.6,130.4,14.4c27.2,33.9,27.2,82.1,0,116h10.9
	c32-46,20.7-109.3-25.3-141.3c-46-32-109.3-20.7-141.3,25.3c-24.3,34.9-24.3,81.2,0,116H519.8z"/>
</svg>
